<svg width="153" height="67" viewBox="0 0 153 67" fill="none" xmlns="http://www.w3.org/2000/svg">
    <path fill-rule="evenodd" clip-rule="evenodd" d="M12.7296 66.904C4.87117 66.8989 0 59.3394 0 51.4809V15.4465C0 7.57393 4.88045 0 12.753 0C31.6731 0 47.0109 14.977 47.0109 33.452C47.0109 51.9194 31.6857 66.8917 12.7764 66.904C12.7686 66.904 12.7608 66.904 12.753 66.904C12.7452 66.904 12.7374 66.904 12.7296 66.904Z" fill="#132C33"/>
    <circle cx="23.523" cy="35.4837" r="12.3595" fill="#C4C4C4"/>
    <path d="M57.404 36.344C60.404 36.344 62.708 37.064 64.316 38.504C65.924 39.92 66.728 42.068 66.728 44.948V56H61.472V53.588C60.416 55.388 58.448 56.288 55.568 56.288C54.08 56.288 52.784 56.036 51.68 55.532C50.6 55.028 49.772 54.332 49.196 53.444C48.62 52.556 48.332 51.548 48.332 50.42C48.332 48.62 49.004 47.204 50.348 46.172C51.716 45.14 53.816 44.624 56.648 44.624H61.112C61.112 43.4 60.74 42.464 59.996 41.816C59.252 41.144 58.136 40.808 56.648 40.808C55.616 40.808 54.596 40.976 53.588 41.312C52.604 41.624 51.764 42.056 51.068 42.608L49.052 38.684C50.108 37.94 51.368 37.364 52.832 36.956C54.32 36.548 55.844 36.344 57.404 36.344ZM56.972 52.508C57.932 52.508 58.784 52.292 59.528 51.86C60.272 51.404 60.8 50.744 61.112 49.88V47.9H57.26C54.956 47.9 53.804 48.656 53.804 50.168C53.804 50.888 54.08 51.464 54.632 51.896C55.208 52.304 55.988 52.508 56.972 52.508ZM84.3028 55.064C83.7508 55.472 83.0668 55.784 82.2508 56C81.4588 56.192 80.6188 56.288 79.7308 56.288C77.4268 56.288 75.6388 55.7 74.3668 54.524C73.1188 53.348 72.4948 51.62 72.4948 49.34V41.384H69.5068V37.064H72.4948V32.348H78.1108V37.064H82.9348V41.384H78.1108V49.268C78.1108 50.084 78.3148 50.72 78.7227 51.176C79.1548 51.608 79.7548 51.824 80.5228 51.824C81.4108 51.824 82.1668 51.584 82.7908 51.104L84.3028 55.064ZM95.2673 36.344C98.2673 36.344 100.571 37.064 102.179 38.504C103.787 39.92 104.591 42.068 104.591 44.948V56H99.3353V53.588C98.2793 55.388 96.3113 56.288 93.4313 56.288C91.9433 56.288 90.6473 56.036 89.5433 55.532C88.4633 55.028 87.6353 54.332 87.0593 53.444C86.4833 52.556 86.1953 51.548 86.1953 50.42C86.1953 48.62 86.8673 47.204 88.2113 46.172C89.5793 45.14 91.6793 44.624 94.5113 44.624H98.9753C98.9753 43.4 98.6033 42.464 97.8593 41.816C97.1153 41.144 95.9993 40.808 94.5113 40.808C93.4793 40.808 92.4593 40.976 91.4513 41.312C90.4673 41.624 89.6273 42.056 88.9313 42.608L86.9153 38.684C87.9713 37.94 89.2313 37.364 90.6953 36.956C92.1833 36.548 93.7073 36.344 95.2673 36.344ZM94.8353 52.508C95.7953 52.508 96.6473 52.292 97.3913 51.86C98.1353 51.404 98.6633 50.744 98.9753 49.88V47.9H95.1233C92.8193 47.9 91.6673 48.656 91.6673 50.168C91.6673 50.888 91.9433 51.464 92.4953 51.896C93.0713 52.304 93.8513 52.508 94.8353 52.508ZM117.99 48.404L115.29 51.068V56H109.674V29.288H115.29V44.408L123.498 36.632H130.194L122.13 44.84L130.914 56H124.11L117.99 48.404ZM152.6 36.632V56H147.272V53.696C146.528 54.536 145.64 55.184 144.608 55.64C143.576 56.072 142.46 56.288 141.26 56.288C138.716 56.288 136.7 55.556 135.212 54.092C133.724 52.628 132.98 50.456 132.98 47.576V36.632H138.596V46.748C138.596 49.868 139.904 51.428 142.52 51.428C143.864 51.428 144.944 50.996 145.76 50.132C146.576 49.244 146.984 47.936 146.984 46.208V36.632H152.6Z" fill="#132C33"/>
</svg>
